<svg width="322" height="264" viewBox="0 0 322 264" fill="none" xmlns="http://www.w3.org/2000/svg">
<g clip-path="url(#clip0_43_123)">
<path d="M0.839966 162.8H32.96C46.94 220.53 99.03 263.54 161 263.54C222.97 263.54 275.06 220.53 289.04 162.8H321.16V159.93H0.839966V162.8ZM280.4 162.8C266.62 215.87 218.31 255.17 160.99 255.17C103.67 255.17 55.36 215.87 41.58 162.8H280.4ZM40.6 162.8C54.41 216.4 103.14 256.13 161 256.13C218.86 256.13 267.59 216.4 281.4 162.8H286.08C272.17 218.93 221.37 260.66 161 260.66C100.63 260.66 49.83 218.93 35.92 162.8H40.6Z" fill="#3055A2"/>
<path d="M289.03 100.81C275.05 43.08 222.96 0.0800171 160.99 0.0800171C99.02 0.0800171 46.93 43.09 32.95 100.81H0.829956V103.68H321.15V100.81H289.03ZM41.58 100.81C55.37 47.74 103.67 8.44002 160.99 8.44002C218.31 8.44002 266.61 47.74 280.4 100.81H41.58ZM281.39 100.81C267.58 47.21 218.85 7.48002 160.99 7.48002C103.13 7.48002 54.4 47.21 40.59 100.81H35.91C49.82 44.68 100.62 2.95001 160.99 2.95001C221.36 2.95001 272.15 44.68 286.07 100.81H281.39Z" fill="#3055A2"/>
<path d="M82.94 203.76C83.68 204.06 84.39 204.15 85.07 204.03C85.75 203.92 86.35 203.65 86.87 203.24C86.95 203.17 86.99 203.09 86.98 202.99C86.98 202.89 86.94 202.8 86.87 202.73L86.3 202.08C86.22 201.99 86.14 201.94 86.05 201.93C85.96 201.92 85.85 201.94 85.73 202.01C84.94 202.44 84.25 202.58 83.64 202.42C83.03 202.27 82.44 201.87 81.88 201.22C80.56 199.72 80.71 198.21 82.32 196.68C82.56 196.45 82.93 196.13 83.41 195.7C83.89 195.27 84.26 194.97 84.5 194.77C86.23 193.36 87.75 193.41 89.07 194.91C89.65 195.57 89.97 196.2 90.04 196.82C90.11 197.44 89.88 198.11 89.34 198.84C89.26 198.96 89.22 199.06 89.22 199.15C89.22 199.24 89.26 199.33 89.34 199.41L89.91 200.06C89.98 200.14 90.06 200.18 90.16 200.2C90.26 200.22 90.34 200.19 90.42 200.12C90.9 199.66 91.24 199.09 91.44 198.44C91.64 197.78 91.64 197.07 91.44 196.29C91.24 195.51 90.81 194.75 90.13 193.98C89.12 192.83 88.04 192.23 86.89 192.18C85.74 192.13 84.6 192.56 83.47 193.47C83.22 193.67 82.83 194.01 82.29 194.48C81.76 194.94 81.39 195.28 81.16 195.49C80.11 196.49 79.54 197.56 79.44 198.71C79.34 199.86 79.79 201.01 80.8 202.16C81.47 202.93 82.18 203.46 82.92 203.76H82.94Z" fill="#3055A2"/>
<path d="M89.88 204.99C88.86 206.21 88.4 207.38 88.49 208.51C88.58 209.64 89.18 210.7 90.3 211.69C91.42 212.68 92.54 213.15 93.67 213.1C94.8 213.05 95.9 212.44 96.99 211.29C97.46 210.79 97.8 210.43 97.99 210.22C98.19 210 98.5 209.63 98.92 209.11C99.92 207.91 100.37 206.73 100.28 205.57C100.19 204.41 99.6 203.36 98.53 202.41C97.46 201.46 96.34 201 95.17 201.04C94 201.08 92.89 201.67 91.82 202.81C91.59 203.05 91.27 203.41 90.85 203.88C90.43 204.35 90.11 204.72 89.89 204.99H89.88ZM92.08 204.98C92.47 204.54 92.78 204.2 93.01 203.96C93.8 203.12 94.59 202.68 95.38 202.63C96.17 202.58 96.91 202.86 97.6 203.47C98.29 204.08 98.65 204.78 98.69 205.56C98.73 206.35 98.38 207.18 97.66 208.07C97.24 208.58 96.94 208.94 96.77 209.12C96.62 209.29 96.3 209.63 95.83 210.13C95.03 210.96 94.25 211.4 93.46 211.45C92.68 211.5 91.94 211.22 91.26 210.61C90.56 209.99 90.19 209.29 90.15 208.51C90.11 207.73 90.45 206.9 91.19 206.01C91.41 205.75 91.71 205.4 92.09 204.97L92.08 204.98Z" fill="#3055A2"/>
<path d="M97.77 217.48C97.79 217.58 97.84 217.66 97.94 217.73L98.6 218.17C98.69 218.23 98.79 218.26 98.9 218.24C99 218.22 99.09 218.16 99.15 218.07L104.01 210.92L103.84 221.44C103.82 221.62 103.88 221.76 104.05 221.87L104.69 222.3C104.78 222.36 104.89 222.38 104.99 222.36C105.09 222.34 105.18 222.28 105.25 222.18L111.56 212.89C111.63 212.79 111.66 212.68 111.64 212.58C111.62 212.48 111.56 212.39 111.45 212.32L110.81 211.88C110.72 211.82 110.62 211.79 110.51 211.81C110.41 211.83 110.32 211.89 110.25 212L105.35 219.21L105.57 208.62C105.57 208.53 105.55 208.45 105.52 208.38C105.5 208.31 105.44 208.24 105.35 208.18L104.72 207.75C104.62 207.69 104.53 207.67 104.43 207.69C104.33 207.71 104.25 207.78 104.17 207.88L97.85 217.18C97.79 217.27 97.76 217.37 97.78 217.47L97.77 217.48Z" fill="#3055A2"/>
<path d="M109.49 225.03C109.52 225.13 109.58 225.2 109.69 225.25L110.4 225.61C110.5 225.66 110.6 225.67 110.7 225.64C110.8 225.61 110.88 225.54 110.93 225.44L114.81 217.71L116.01 228.17C116.01 228.35 116.1 228.48 116.27 228.57L116.96 228.92C117.06 228.97 117.17 228.98 117.27 228.94C117.37 228.9 117.45 228.83 117.5 228.73L122.54 218.7C122.6 218.59 122.61 218.48 122.58 218.38C122.55 218.28 122.47 218.2 122.36 218.14L121.67 217.79C121.57 217.74 121.47 217.73 121.37 217.76C121.27 217.79 121.19 217.87 121.13 217.98L117.22 225.77L116.05 215.24C116.03 215.15 116 215.08 115.97 215.01C115.94 214.94 115.87 214.88 115.77 214.83L115.09 214.49C114.99 214.44 114.89 214.43 114.79 214.47C114.7 214.51 114.62 214.58 114.56 214.69L109.51 224.74C109.46 224.84 109.45 224.94 109.47 225.04L109.49 225.03Z" fill="#3055A2"/>
<path d="M122.09 230.94C122.13 231.03 122.2 231.1 122.31 231.14L129.11 233.56C129.22 233.6 129.32 233.6 129.42 233.56C129.52 233.52 129.59 233.44 129.63 233.33L129.84 232.75C129.88 232.63 129.88 232.52 129.84 232.43C129.8 232.33 129.71 232.27 129.59 232.22L123.92 230.21L125.25 226.46L130.43 228.3C130.55 228.34 130.66 228.34 130.75 228.3C130.84 228.25 130.91 228.18 130.95 228.07L131.15 227.52C131.19 227.4 131.19 227.29 131.15 227.2C131.11 227.1 131.02 227.03 130.9 226.99L125.72 225.15L127.01 221.53L132.54 223.5C132.66 223.54 132.77 223.54 132.86 223.5C132.95 223.46 133.02 223.39 133.06 223.28L133.27 222.7C133.31 222.58 133.31 222.47 133.27 222.38C133.22 222.29 133.14 222.22 133.02 222.17L126.35 219.8C126.24 219.76 126.14 219.77 126.05 219.81C125.96 219.85 125.89 219.94 125.85 220.06L122.09 230.66C122.05 230.77 122.05 230.87 122.09 230.96V230.94Z" fill="#3055A2"/>
<path d="M137.74 235.97C138.74 236.19 139.62 236.21 140.4 236.01C141.17 235.81 141.8 235.47 142.28 234.98C142.76 234.49 143.09 233.92 143.27 233.28C143.29 233.18 143.27 233.09 143.22 233.01C143.16 232.93 143.08 232.88 142.98 232.86L142.14 232.67C142.03 232.65 141.93 232.65 141.85 232.69C141.77 232.73 141.7 232.81 141.64 232.94C141.26 233.75 140.78 234.27 140.19 234.5C139.6 234.73 138.9 234.76 138.06 234.57C136.11 234.13 135.34 232.82 135.74 230.64C135.8 230.31 135.9 229.84 136.04 229.21C136.18 228.58 136.29 228.12 136.37 227.82C136.94 225.66 138.19 224.8 140.14 225.24C140.99 225.43 141.63 225.76 142.05 226.21C142.47 226.67 142.68 227.35 142.68 228.26C142.68 228.4 142.71 228.51 142.77 228.58C142.82 228.65 142.91 228.7 143.02 228.72L143.86 228.91C143.96 228.93 144.05 228.92 144.14 228.88C144.23 228.84 144.28 228.76 144.3 228.66C144.41 228 144.36 227.35 144.13 226.7C143.9 226.05 143.48 225.47 142.87 224.96C142.25 224.45 141.45 224.09 140.45 223.86C138.96 223.53 137.73 223.68 136.77 224.32C135.81 224.96 135.14 225.98 134.77 227.38C134.69 227.69 134.57 228.19 134.41 228.89C134.26 229.57 134.15 230.07 134.1 230.37C133.84 231.79 134.01 233 134.6 233.99C135.2 234.98 136.24 235.64 137.73 235.97H137.74Z" fill="#3055A2"/>
<path d="M147.11 226.87L150.42 227.2L149.39 237.33C149.38 237.44 149.41 237.54 149.47 237.62C149.54 237.7 149.63 237.75 149.74 237.76L150.56 237.84C150.67 237.85 150.77 237.82 150.86 237.76C150.95 237.69 151 237.6 151.01 237.49L152.04 227.36L155.33 227.69C155.44 227.7 155.54 227.67 155.62 227.61C155.7 227.55 155.75 227.45 155.76 227.34L155.83 226.67C155.84 226.54 155.82 226.44 155.76 226.36C155.7 226.28 155.61 226.23 155.48 226.22L147.26 225.39C147.15 225.38 147.05 225.41 146.97 225.47C146.89 225.54 146.84 225.63 146.83 225.76L146.76 226.43C146.75 226.54 146.78 226.64 146.84 226.72C146.91 226.8 147 226.85 147.11 226.86V226.87Z" fill="#3055A2"/>
<path d="M167.42 231.93C168.24 231.39 168.85 230.87 169.27 230.36C169.69 229.86 169.88 229.25 169.83 228.55C169.79 228.02 169.63 227.56 169.34 227.15C169.05 226.74 168.65 226.43 168.16 226.22C167.66 226.01 167.11 225.92 166.5 225.96C165.87 226 165.32 226.17 164.85 226.46C164.38 226.75 164.03 227.12 163.79 227.57C163.55 228.02 163.45 228.49 163.49 229C163.52 229.48 163.66 229.93 163.92 230.34C164.17 230.76 164.59 231.24 165.18 231.78C164.44 232.28 163.88 232.8 163.49 233.33C163.1 233.86 162.93 234.5 162.98 235.22C163.02 235.87 163.23 236.45 163.6 236.94C163.97 237.43 164.46 237.8 165.07 238.05C165.69 238.3 166.38 238.39 167.14 238.34C168.61 238.24 169.81 237.67 170.75 236.61L171.96 237.67C172.08 237.78 172.24 237.82 172.44 237.81L173.35 237.75C173.57 237.74 173.67 237.62 173.65 237.4C173.65 237.3 173.59 237.21 173.5 237.15L171.63 235.53C172.01 234.89 172.3 234.25 172.49 233.59C172.68 232.93 172.77 232.35 172.76 231.83C172.76 231.73 172.71 231.64 172.64 231.58C172.57 231.52 172.48 231.49 172.38 231.49L171.68 231.54C171.56 231.54 171.48 231.58 171.42 231.65C171.36 231.72 171.33 231.8 171.33 231.91C171.24 232.93 170.99 233.83 170.58 234.62L167.43 231.91L167.42 231.93ZM165 228.92C164.97 228.46 165.11 228.08 165.42 227.77C165.73 227.46 166.12 227.29 166.58 227.26C167.07 227.23 167.49 227.34 167.83 227.6C168.17 227.86 168.36 228.22 168.39 228.69C168.42 229.14 168.27 229.53 167.93 229.88C167.6 230.22 167.1 230.6 166.43 231.01C165.89 230.52 165.52 230.12 165.32 229.82C165.12 229.52 165.01 229.22 164.99 228.91L165 228.92ZM168.46 236.63C168 236.86 167.53 236.98 167.05 237.02C166.38 237.06 165.8 236.92 165.3 236.58C164.8 236.24 164.53 235.75 164.49 235.11C164.46 234.63 164.59 234.21 164.89 233.84C165.19 233.47 165.62 233.11 166.2 232.73L169.68 235.67C169.33 236.09 168.92 236.41 168.47 236.63H168.46Z" fill="#3055A2"/>
<path d="M182.83 235.7C182.85 235.81 182.91 235.9 182.99 235.96C183.07 236.02 183.17 236.04 183.28 236.01L184.12 235.83C184.23 235.81 184.32 235.75 184.37 235.66C184.43 235.57 184.44 235.47 184.42 235.36L182.02 224.35C181.99 224.23 181.94 224.14 181.86 224.09C181.78 224.04 181.68 224.02 181.55 224.05L180.71 224.23C180.6 224.25 180.52 224.31 180.46 224.4C180.41 224.49 180.39 224.59 180.42 224.7L182.82 235.71L182.83 235.7Z" fill="#3055A2"/>
<path d="M189.06 234.29C189.1 234.4 189.16 234.48 189.25 234.53C189.34 234.58 189.44 234.59 189.55 234.55L190.3 234.31C190.41 234.27 190.49 234.21 190.54 234.12C190.59 234.03 190.6 233.92 190.56 233.82L187.92 225.59L196.1 232.21C196.23 232.34 196.38 232.37 196.57 232.31L197.31 232.07C197.42 232.03 197.5 231.97 197.54 231.87C197.58 231.77 197.59 231.67 197.56 231.56L194.14 220.87C194.1 220.75 194.03 220.67 193.94 220.62C193.85 220.57 193.74 220.57 193.62 220.61L192.88 220.85C192.77 220.89 192.69 220.95 192.64 221.04C192.59 221.13 192.59 221.24 192.63 221.36L195.29 229.66L187.08 222.96C187 222.91 186.93 222.88 186.86 222.85C186.79 222.82 186.7 222.83 186.59 222.86L185.87 223.09C185.76 223.13 185.68 223.19 185.64 223.28C185.6 223.37 185.59 223.48 185.64 223.6L189.07 234.31L189.06 234.29Z" fill="#3055A2"/>
<path d="M199.17 223.39C199.59 223.66 200.09 223.81 200.69 223.85C201.29 223.89 202.04 223.84 202.94 223.69C203.9 223.55 204.63 223.46 205.13 223.44C205.63 223.42 206.04 223.47 206.36 223.6C206.68 223.73 206.92 223.97 207.09 224.33C207.35 224.88 207.33 225.42 207.04 225.93C206.75 226.45 206.16 226.91 205.28 227.32C204.46 227.7 203.75 227.84 203.16 227.73C202.57 227.62 202.13 227.37 201.83 226.97C201.66 226.8 201.48 226.75 201.29 226.84L200.52 227.2C200.43 227.24 200.36 227.31 200.33 227.4C200.3 227.49 200.3 227.58 200.33 227.66C200.59 228.16 200.98 228.56 201.52 228.85C202.05 229.14 202.7 229.27 203.45 229.25C204.21 229.23 205.01 229.02 205.86 228.62C207.13 228.03 208.01 227.29 208.5 226.39C208.99 225.5 209.01 224.56 208.55 223.58C208.28 223 207.93 222.58 207.51 222.33C207.09 222.08 206.57 221.94 205.95 221.93C205.33 221.92 204.52 221.99 203.52 222.15C202.64 222.28 201.96 222.35 201.48 222.36C201 222.36 200.6 222.3 200.31 222.16C200.01 222.02 199.78 221.77 199.61 221.4C199.36 220.86 199.38 220.35 199.66 219.88C199.95 219.41 200.45 219.01 201.15 218.68C201.81 218.38 202.42 218.27 202.99 218.35C203.56 218.44 203.98 218.69 204.26 219.11C204.34 219.2 204.43 219.25 204.52 219.27C204.62 219.29 204.71 219.27 204.79 219.24L205.57 218.88C205.66 218.84 205.73 218.77 205.76 218.68C205.79 218.59 205.79 218.5 205.74 218.4C205.52 217.97 205.15 217.61 204.65 217.32C204.15 217.03 203.54 216.87 202.83 216.86C202.12 216.84 201.36 217.02 200.54 217.4C199.76 217.76 199.14 218.21 198.69 218.73C198.24 219.25 197.96 219.8 197.86 220.39C197.76 220.97 197.85 221.55 198.11 222.11C198.38 222.69 198.73 223.12 199.14 223.39H199.17Z" fill="#3055A2"/>
<path d="M213.44 224.16C213.5 224.26 213.58 224.32 213.68 224.35C213.78 224.38 213.88 224.35 213.97 224.3L214.7 223.85C214.8 223.79 214.86 223.71 214.88 223.6C214.9 223.5 214.88 223.4 214.83 223.3L212.54 219.61L215.17 217.97C216.27 217.29 216.97 216.48 217.28 215.57C217.58 214.65 217.42 213.69 216.79 212.67C216.16 211.66 215.37 211.08 214.41 210.94C213.45 210.8 212.42 211.07 211.32 211.76L207.62 214.06C207.52 214.12 207.46 214.2 207.45 214.3C207.43 214.4 207.45 214.5 207.52 214.61L213.45 224.16H213.44ZM211.98 212.98C212.72 212.52 213.38 212.34 213.95 212.45C214.52 212.55 215 212.92 215.39 213.54C216.18 214.82 215.84 215.91 214.37 216.83L211.81 218.42L209.42 214.57L211.98 212.98Z" fill="#3055A2"/>
<path d="M224.06 217.14C224.13 217.23 224.21 217.29 224.31 217.31C224.41 217.33 224.51 217.31 224.6 217.23L225.29 216.71C225.38 216.64 225.44 216.55 225.45 216.45C225.46 216.35 225.44 216.25 225.37 216.16L218.59 207.16C218.51 207.06 218.43 207 218.33 206.99C218.23 206.98 218.13 207.01 218.03 207.08L217.34 207.6C217.25 207.67 217.2 207.75 217.19 207.85C217.18 207.95 217.21 208.05 217.28 208.14L224.06 217.14Z" fill="#3055A2"/>
<path d="M229.1 213.27C229.18 213.35 229.27 213.4 229.37 213.41C229.47 213.41 229.56 213.38 229.65 213.31L230.26 212.76C230.34 212.68 230.39 212.59 230.4 212.48C230.4 212.37 230.38 212.27 230.3 212.19L227.3 208.87L229.57 206.81L234.41 208.38C234.57 208.44 234.71 208.46 234.84 208.46C234.97 208.46 235.09 208.39 235.22 208.28L235.78 207.77C235.85 207.71 235.88 207.63 235.89 207.53C235.89 207.43 235.87 207.35 235.81 207.28C235.77 207.24 235.72 207.2 235.64 207.17L230.59 205.54C231.02 204.85 231.21 204.16 231.16 203.45C231.11 202.74 230.79 202.06 230.2 201.41C229.41 200.54 228.54 200.13 227.58 200.17C226.62 200.21 225.65 200.67 224.68 201.55L221.56 204.37C221.48 204.45 221.43 204.54 221.43 204.64C221.43 204.74 221.47 204.84 221.56 204.93L229.11 213.27H229.1ZM225.56 202.63C226.85 201.47 227.98 201.43 228.96 202.51C229.94 203.59 229.78 204.71 228.5 205.88L226.35 207.82L223.41 204.58L225.56 202.64V202.63Z" fill="#3055A2"/>
<path d="M238.63 204.22C238.72 204.3 238.81 204.33 238.91 204.33C239.01 204.33 239.1 204.28 239.18 204.2L243.92 198.76C244 198.67 244.03 198.58 244.03 198.47C244.03 198.36 243.98 198.27 243.9 198.19L243.43 197.78C243.34 197.7 243.23 197.66 243.13 197.67C243.02 197.67 242.93 197.73 242.85 197.82L238.9 202.35L235.9 199.74L239.51 195.6C239.59 195.51 239.63 195.4 239.62 195.3C239.62 195.19 239.57 195.1 239.48 195.03L239.04 194.65C238.94 194.57 238.84 194.53 238.74 194.54C238.63 194.54 238.54 194.6 238.46 194.69L234.85 198.83L231.95 196.31L235.81 191.88C235.89 191.78 235.93 191.69 235.93 191.58C235.93 191.47 235.88 191.39 235.8 191.32L235.33 190.91C235.23 190.83 235.13 190.79 235.03 190.8C234.92 190.8 234.83 190.86 234.75 190.95L230.1 196.29C230.02 196.38 229.99 196.47 230 196.57C230.01 196.67 230.06 196.76 230.16 196.85L238.64 204.24L238.63 204.22Z" fill="#3055A2"/>
<path d="M89.45 68.02C88.95 67.61 88.46 67.39 87.97 67.35C87.48 67.31 86.95 67.42 86.39 67.67C85.82 67.93 85.13 68.35 84.3 68.94C83.57 69.44 82.99 69.8 82.56 70.02C82.13 70.24 81.75 70.35 81.42 70.36C81.09 70.37 80.77 70.24 80.46 69.99C80 69.61 79.79 69.15 79.84 68.6C79.89 68.05 80.17 67.47 80.66 66.87C81.12 66.31 81.62 65.94 82.17 65.77C82.72 65.6 83.21 65.64 83.64 65.9C83.75 65.95 83.85 65.96 83.95 65.93C84.05 65.9 84.12 65.85 84.18 65.78L84.72 65.11C84.78 65.03 84.81 64.94 84.8 64.84C84.8 64.74 84.74 64.66 84.66 64.6C84.27 64.31 83.79 64.15 83.21 64.11C82.63 64.07 82.02 64.2 81.37 64.49C80.72 64.79 80.12 65.28 79.55 65.98C79.01 66.65 78.65 67.32 78.47 67.98C78.29 68.65 78.29 69.26 78.46 69.83C78.63 70.4 78.96 70.87 79.44 71.26C79.94 71.67 80.44 71.9 80.93 71.96C81.42 72.02 81.94 71.94 82.5 71.71C83.05 71.49 83.71 71.11 84.46 70.58C85.26 70.03 85.88 69.64 86.32 69.39C86.76 69.14 87.15 69.01 87.5 68.99C87.85 68.97 88.17 69.08 88.47 69.32C88.94 69.7 89.16 70.19 89.12 70.78C89.08 71.37 88.76 72.05 88.14 72.8C87.57 73.51 86.99 73.94 86.41 74.09C85.83 74.25 85.32 74.22 84.88 73.99C84.65 73.91 84.47 73.95 84.34 74.11L83.81 74.77C83.75 74.85 83.72 74.94 83.73 75.04C83.73 75.14 83.78 75.21 83.85 75.27C84.3 75.61 84.83 75.79 85.44 75.81C86.05 75.84 86.69 75.67 87.35 75.32C88.01 74.97 88.65 74.43 89.24 73.7C90.12 72.61 90.59 71.56 90.64 70.54C90.69 69.52 90.29 68.67 89.46 68L89.45 68.02Z" fill="#3055A2"/>
<path d="M89.61 57.46L91.98 55.15C92.06 55.07 92.1 54.98 92.11 54.87C92.11 54.76 92.07 54.67 91.99 54.59L91.52 54.11C91.43 54.02 91.34 53.97 91.24 53.97C91.14 53.97 91.04 54.01 90.95 54.09L85.03 59.86C84.95 59.94 84.91 60.03 84.91 60.14C84.91 60.25 84.95 60.34 85.04 60.43L85.51 60.91C85.59 60.99 85.68 61.03 85.79 61.03C85.9 61.03 85.99 60.99 86.07 60.91L88.45 58.59L95.56 65.88C95.64 65.96 95.73 66 95.84 66.01C95.95 66.01 96.04 65.97 96.12 65.89L96.71 65.31C96.79 65.23 96.84 65.14 96.84 65.03C96.84 64.92 96.81 64.82 96.73 64.74L89.62 57.45L89.61 57.46Z" fill="#3055A2"/>
<path d="M104.99 50.6C104.81 50.36 104.51 49.99 104.08 49.47C103.09 48.26 102.02 47.59 100.87 47.46C99.7199 47.33 98.5699 47.7 97.4299 48.58C96.2899 49.46 95.6299 50.46 95.4499 51.62C95.2699 52.78 95.6299 53.98 96.5499 55.25C96.7399 55.52 97.0299 55.91 97.4199 56.41C97.7999 56.91 98.1099 57.3 98.3199 57.56C99.3199 58.79 100.38 59.47 101.51 59.6C102.64 59.73 103.79 59.34 104.98 58.43C106.17 57.52 106.84 56.51 107.01 55.39C107.17 54.27 106.79 53.07 105.87 51.79C105.47 51.23 105.18 50.83 105.01 50.61L104.99 50.6ZM105.35 55.28C105.25 56.06 104.84 56.73 104.11 57.28C103.37 57.84 102.61 58.07 101.84 57.97C101.06 57.86 100.31 57.36 99.5899 56.47C99.3699 56.2 99.0899 55.84 98.7399 55.39C98.3799 54.93 98.1099 54.56 97.9199 54.29C97.2499 53.36 96.9599 52.5 97.0699 51.71C97.1699 50.92 97.5799 50.25 98.3099 49.69C99.0399 49.13 99.7899 48.91 100.57 49.02C101.35 49.13 102.11 49.63 102.84 50.51C103.26 51.02 103.55 51.38 103.71 51.58C103.85 51.76 104.12 52.13 104.52 52.7C105.18 53.64 105.46 54.5 105.36 55.28H105.35Z" fill="#3055A2"/>
<path d="M118.82 48.72L114.22 46.06C114.79 45.48 115.12 44.84 115.22 44.13C115.32 43.42 115.15 42.69 114.71 41.94C114.13 40.93 113.36 40.34 112.41 40.18C111.46 40.02 110.42 40.26 109.29 40.92L105.65 43.02C105.55 43.08 105.49 43.16 105.47 43.25C105.45 43.35 105.47 43.45 105.53 43.56L111.15 53.3C111.21 53.4 111.28 53.47 111.38 53.49C111.48 53.52 111.58 53.51 111.67 53.45L112.39 53.04C112.49 52.98 112.56 52.9 112.59 52.8C112.62 52.7 112.61 52.59 112.55 52.49L110.31 48.61L112.97 47.08L117.37 49.63C117.51 49.72 117.65 49.77 117.77 49.8C117.89 49.82 118.03 49.79 118.18 49.7L118.84 49.32C118.92 49.27 118.97 49.2 119 49.11C119.03 49.02 119.02 48.93 118.97 48.85C118.94 48.8 118.89 48.75 118.83 48.71L118.82 48.72ZM112.11 45.95L109.6 47.4L107.41 43.61L109.92 42.16C111.42 41.29 112.54 41.49 113.27 42.76C114 44.02 113.61 45.09 112.11 45.95Z" fill="#3055A2"/>
<path d="M118.56 36.65C118.51 36.53 118.44 36.46 118.34 36.43C118.25 36.4 118.15 36.41 118.03 36.46L117.25 36.82C117.15 36.87 117.08 36.94 117.05 37.04C117.02 37.14 117.03 37.24 117.07 37.34L121.75 47.59C121.8 47.69 121.87 47.77 121.96 47.81C122.05 47.85 122.15 47.85 122.26 47.8L123.04 47.44C123.14 47.39 123.21 47.32 123.25 47.22C123.29 47.12 123.28 47.02 123.23 46.92L118.55 36.67L118.56 36.65Z" fill="#3055A2"/>
<path d="M134.11 42.09C134.07 41.97 134 41.89 133.9 41.84C133.81 41.79 133.7 41.79 133.58 41.84L127.91 43.83L126.59 40.08L131.77 38.26C131.89 38.22 131.97 38.15 132.02 38.05C132.06 37.95 132.07 37.85 132.03 37.74L131.84 37.19C131.8 37.07 131.73 36.99 131.63 36.94C131.53 36.9 131.43 36.89 131.31 36.94L126.13 38.76L124.86 35.14L130.4 33.19C130.52 33.15 130.6 33.08 130.65 32.99C130.7 32.9 130.7 32.8 130.66 32.69L130.45 32.11C130.41 31.99 130.34 31.91 130.24 31.86C130.14 31.81 130.04 31.81 129.92 31.86L123.24 34.21C123.13 34.25 123.06 34.31 123.02 34.41C122.98 34.5 122.98 34.61 123.02 34.73L126.75 45.34C126.79 45.45 126.85 45.53 126.94 45.57C127.03 45.61 127.13 45.62 127.24 45.58L134.05 43.19C134.16 43.15 134.24 43.08 134.29 42.99C134.34 42.89 134.35 42.79 134.31 42.68L134.1 42.1L134.11 42.09Z" fill="#3055A2"/>
<path d="M144.17 35.81C143.81 35.47 143.33 35.23 142.73 35.08C142.13 34.93 141.32 34.83 140.31 34.77C139.43 34.71 138.75 34.63 138.27 34.53C137.8 34.43 137.43 34.29 137.17 34.08C136.91 33.88 136.73 33.58 136.65 33.19C136.52 32.61 136.65 32.12 137.03 31.72C137.41 31.33 137.99 31.04 138.75 30.88C139.46 30.72 140.08 30.75 140.62 30.96C141.16 31.17 141.52 31.51 141.69 31.98C141.75 32.08 141.82 32.16 141.91 32.19C142 32.22 142.09 32.24 142.18 32.22L143.02 32.04C143.12 32.02 143.2 31.96 143.25 31.88C143.3 31.8 143.32 31.71 143.3 31.61C143.17 31.14 142.9 30.71 142.47 30.32C142.04 29.93 141.48 29.64 140.79 29.47C140.1 29.3 139.32 29.31 138.44 29.5C137.6 29.68 136.9 29.98 136.34 30.39C135.78 30.8 135.39 31.28 135.17 31.83C134.95 32.38 134.91 32.95 135.04 33.56C135.18 34.19 135.42 34.68 135.77 35.03C136.12 35.38 136.58 35.64 137.15 35.81C137.72 35.98 138.47 36.09 139.38 36.15C140.35 36.22 141.08 36.3 141.57 36.38C142.07 36.47 142.45 36.61 142.74 36.8C143.02 37 143.21 37.29 143.29 37.67C143.42 38.26 143.29 38.78 142.89 39.22C142.49 39.66 141.82 39.98 140.86 40.19C139.97 40.38 139.25 40.36 138.7 40.13C138.15 39.9 137.77 39.55 137.57 39.1C137.44 38.89 137.28 38.81 137.08 38.86L136.25 39.04C136.15 39.06 136.07 39.11 136.02 39.2C135.97 39.29 135.95 39.37 135.97 39.46C136.11 40 136.41 40.48 136.87 40.88C137.33 41.28 137.93 41.55 138.67 41.69C139.41 41.83 140.24 41.8 141.16 41.6C142.53 41.3 143.55 40.77 144.22 40C144.89 39.24 145.11 38.33 144.88 37.27C144.74 36.64 144.5 36.16 144.14 35.82L144.17 35.81Z" fill="#3055A2"/>
<path d="M160.55 27.24C160.48 27.17 160.38 27.14 160.25 27.14L151.99 27.52C151.88 27.52 151.78 27.57 151.71 27.64C151.64 27.72 151.61 27.82 151.61 27.95L151.64 28.62C151.64 28.74 151.69 28.83 151.76 28.9C151.84 28.97 151.93 29 152.05 29L155.37 28.85L155.84 39.02C155.84 39.14 155.89 39.23 155.96 39.3C156.04 39.37 156.13 39.4 156.25 39.4L157.08 39.36C157.19 39.36 157.29 39.31 157.37 39.23C157.45 39.15 157.48 39.06 157.48 38.94L157.01 28.77L160.31 28.62C160.42 28.62 160.52 28.57 160.59 28.5C160.66 28.43 160.69 28.33 160.69 28.21L160.66 27.54C160.66 27.41 160.62 27.31 160.54 27.24H160.55Z" fill="#3055A2"/>
<path d="M173.58 27.89L172.76 27.82C172.65 27.82 172.55 27.84 172.47 27.91C172.39 27.98 172.35 28.08 172.33 28.2L171.95 32.97L165.98 32.49L166.36 27.72C166.36 27.59 166.34 27.49 166.27 27.41C166.2 27.33 166.1 27.28 165.98 27.27L165.16 27.2C165.05 27.2 164.95 27.22 164.88 27.29C164.8 27.36 164.76 27.46 164.75 27.58L163.86 38.79C163.86 38.9 163.88 39 163.94 39.08C164 39.16 164.09 39.2 164.21 39.21L165.03 39.28C165.14 39.28 165.24 39.26 165.33 39.19C165.42 39.12 165.46 39.03 165.47 38.92L165.86 33.97L171.83 34.45L171.44 39.39C171.44 39.51 171.46 39.6 171.53 39.68C171.6 39.76 171.69 39.8 171.8 39.81L172.62 39.88C172.73 39.88 172.83 39.86 172.92 39.79C173.01 39.72 173.05 39.63 173.06 39.52L173.95 28.31C173.95 28.18 173.93 28.08 173.86 28C173.79 27.92 173.69 27.88 173.57 27.87L173.58 27.89Z" fill="#3055A2"/>
<path d="M183.89 29.75L182.81 29.51C182.54 29.45 182.33 29.54 182.19 29.76L175.64 39.73L175.57 39.91C175.55 40 175.57 40.09 175.62 40.17C175.67 40.25 175.74 40.3 175.83 40.32L176.64 40.5C176.83 40.54 176.99 40.48 177.12 40.31L178.58 38.09L184.15 39.31L184.56 41.94C184.56 42.01 184.6 42.09 184.66 42.16C184.72 42.24 184.8 42.29 184.92 42.31L185.71 42.48C185.8 42.5 185.89 42.48 185.98 42.43C186.07 42.38 186.12 42.31 186.14 42.22V42.03L184.35 30.23C184.31 29.96 184.16 29.8 183.89 29.74V29.75ZM179.37 36.8L183 31.26L183.98 37.8L179.37 36.79V36.8Z" fill="#3055A2"/>
<path d="M198.31 34.01L190.48 31.36C190.37 31.32 190.27 31.33 190.18 31.38C190.09 31.43 190.02 31.51 189.98 31.63L189.77 32.27C189.73 32.38 189.74 32.48 189.79 32.58C189.84 32.68 189.91 32.74 190.02 32.78L193.17 33.84L189.91 43.48C189.87 43.59 189.88 43.69 189.92 43.78C189.97 43.87 190.04 43.94 190.15 43.98L190.93 44.24C191.04 44.28 191.14 44.27 191.24 44.23C191.34 44.19 191.41 44.11 191.45 44L194.71 34.36L197.84 35.42C197.95 35.46 198.05 35.45 198.15 35.4C198.24 35.35 198.31 35.28 198.35 35.17L198.56 34.53C198.6 34.41 198.6 34.3 198.56 34.21C198.52 34.12 198.44 34.05 198.32 34.01H198.31Z" fill="#3055A2"/>
<path d="M215.32 42.48C215.29 42.38 215.22 42.3 215.11 42.24L214.39 41.84C214.29 41.78 214.19 41.77 214.09 41.8C213.99 41.83 213.91 41.9 213.85 42.01L211.53 46.2L206.28 43.3L208.6 39.11C208.66 39 208.68 38.89 208.65 38.79C208.62 38.69 208.55 38.61 208.44 38.55L207.72 38.15C207.62 38.09 207.52 38.08 207.42 38.11C207.32 38.14 207.25 38.21 207.18 38.32L201.74 48.16C201.68 48.26 201.67 48.36 201.69 48.46C201.71 48.56 201.78 48.64 201.88 48.69L202.6 49.09C202.7 49.15 202.8 49.16 202.91 49.13C203.02 49.1 203.1 49.04 203.15 48.94L205.55 44.6L210.8 47.5L208.4 51.84C208.34 51.94 208.33 52.04 208.36 52.14C208.39 52.24 208.45 52.32 208.56 52.38L209.28 52.78C209.38 52.84 209.48 52.85 209.59 52.82C209.7 52.79 209.78 52.73 209.83 52.63L215.27 42.79C215.33 42.68 215.35 42.57 215.32 42.47V42.48Z" fill="#3055A2"/>
<path d="M214.81 54.79L217.17 51.58L221.6 54.83C221.7 54.91 221.81 54.93 221.91 54.92C222.01 54.9 222.1 54.85 222.17 54.76L222.52 54.29C222.59 54.19 222.62 54.08 222.61 53.98C222.59 53.88 222.53 53.79 222.43 53.71L218 50.46L220.27 47.36L225 50.84C225.1 50.92 225.2 50.95 225.3 50.94C225.4 50.93 225.49 50.88 225.55 50.78L225.92 50.28C226 50.18 226.02 50.07 226.01 49.97C225.99 49.87 225.93 49.78 225.83 49.7L220.12 45.51C220.03 45.44 219.93 45.42 219.83 45.44C219.73 45.46 219.64 45.52 219.57 45.62L212.91 54.68C212.84 54.77 212.81 54.87 212.83 54.97C212.84 55.07 212.89 55.16 212.99 55.22L218.81 59.49C218.9 59.56 219 59.59 219.11 59.57C219.22 59.56 219.31 59.51 219.38 59.41L219.75 58.91C219.82 58.81 219.85 58.71 219.84 58.6C219.83 58.49 219.76 58.41 219.66 58.33L214.82 54.77L214.81 54.79Z" fill="#3055A2"/>
<path d="M233.27 56.27L232.47 55.51C232.27 55.32 232.05 55.29 231.81 55.41L221.05 60.56L220.89 60.67C220.83 60.74 220.8 60.82 220.8 60.92C220.8 61.02 220.84 61.1 220.9 61.16L221.5 61.73C221.64 61.86 221.81 61.89 222.01 61.81L224.4 60.66L228.54 64.58L227.54 67.04C227.51 67.11 227.5 67.19 227.51 67.29C227.52 67.39 227.57 67.47 227.65 67.55L228.24 68.11C228.31 68.17 228.39 68.21 228.49 68.21C228.59 68.21 228.67 68.18 228.74 68.11L228.85 67.95L233.41 56.92C233.52 56.67 233.47 56.46 233.27 56.27ZM229.18 63.21L225.75 59.96L231.71 57.09L229.17 63.2L229.18 63.21Z" fill="#3055A2"/>
<path d="M239.67 62.9C239.6 62.81 239.51 62.76 239.41 62.76C239.31 62.76 239.21 62.79 239.13 62.86L230.46 70.05C230.37 70.12 230.32 70.21 230.31 70.31C230.3 70.41 230.33 70.51 230.4 70.59L234.86 75.97C234.93 76.06 235.02 76.11 235.13 76.12C235.24 76.13 235.34 76.1 235.42 76.03L235.92 75.61C236.01 75.54 236.06 75.45 236.07 75.34C236.07 75.23 236.04 75.13 235.96 75.04L232.29 70.61L240.15 64.09C240.24 64.02 240.29 63.93 240.3 63.83C240.31 63.73 240.28 63.63 240.21 63.55L239.66 62.89L239.67 62.9Z" fill="#3055A2"/>
<path d="M3.16003 149.22V150.11H9.96003C23.73 150.11 33.48 144.03 33.48 135.51C33.48 129.66 28.07 125.81 24.28 125.36C27.29 123.13 29.13 120.45 29.13 117.22C29.13 112.87 25.17 111.14 20.16 111.14H3.16003V111.98C5.00003 111.98 6.23003 114.82 6.23003 116.55V146.04C6.23003 147.82 5.00003 149.22 3.16003 149.22ZM11.64 116.33C11.64 114.6 12.92 113.32 14.65 113.32H17.38C20.67 113.32 23.18 114.94 23.18 118C23.18 123.91 14.93 127.2 11.64 129.82V116.33ZM11.64 132C13.93 130.44 17.6 128.66 20.72 128.66C25.51 128.66 27.63 132.39 27.63 135.46C27.63 141.87 19.32 147.44 13.81 147.44C12.36 147.44 11.64 147.33 11.64 144.99V132Z" fill="#3055A2"/>
<path d="M38.95 149.28V150.12H65.2V140.81H64.25C64.25 143.99 62.3 148.06 53.83 148.06C49.82 148.06 47.42 146.33 47.42 142.32V116.9C47.42 115.12 48.6999 112 50.4299 112V111.11H38.95V112C40.79 112 42.02 115.12 42.02 116.9V144.38C42.02 146.16 40.79 149.29 38.95 149.29V149.28Z" fill="#3055A2"/>
<path d="M81.15 111.93V111.09H69.72V111.93C71.56 111.93 72.79 115.11 72.79 116.84V136.57C72.79 148.33 80.37 150.73 86.95 150.73C93.53 150.73 100.05 145.77 100.05 135.29L100.27 116.84C100.27 115.11 101.5 111.93 103.28 111.93V111.09H94.86V111.93C96.59 111.93 97.87 115.11 97.87 116.84L98.09 135.07C98.09 141.98 95.19 147.67 87.94 147.67C82.37 147.67 78.13 142.32 78.13 136.13V116.84C78.13 115.11 79.41 111.93 81.14 111.93H81.15Z" fill="#3055A2"/>
<path d="M107.69 149.28V150.12H132.77C133.49 150.12 133.94 149.62 133.94 148.89V139.92H133.05C133.05 143.77 130.54 148.06 121.57 148.06C118 148.06 116.11 146.5 116.11 143.04V131.33C121.41 131.33 126.65 132.33 126.65 135.06H127.54V126.14H126.65C126.65 128.87 121.41 129.93 116.11 129.93V118.78C116.11 115.49 117.95 113.15 121.57 113.15C130.6 113.15 133.05 117.55 133.05 121.34H133.94V112.14C133.94 111.36 133.49 111.08 132.77 111.08H107.69V111.97C109.53 111.97 110.76 114.98 110.76 116.76V144.46C110.76 146.24 109.53 149.25 107.69 149.25V149.28Z" fill="#3055A2"/>
<path d="M155.29 149.28V150.12H181.54V140.81H180.59C180.59 143.99 178.64 148.06 170.17 148.06C166.16 148.06 163.76 146.33 163.76 142.32V116.9C163.76 115.12 165.04 112 166.77 112V111.11H155.29V112C157.13 112 158.36 115.12 158.36 116.9V144.38C158.36 146.16 157.13 149.29 155.29 149.29V149.28Z" fill="#3055A2"/>
<path d="M185.12 149.28V150.12H193.76V149.28C191.87 149.28 190.75 147.16 191.59 144.76L193.09 140.19H209.14L210.76 145.21C211.32 147.27 210.09 149.28 208.36 149.28V150.12H220.68V149.28C218.84 149.28 217.28 146.55 216.67 144.65L206.02 113.83C205.63 112.72 204.85 111.1 202.45 111.1H198.33V111.94C199.05 111.94 199.72 112.78 200.17 113.84L189.13 144.61C188.52 146.51 186.9 149.29 185.12 149.29V149.28ZM200.5 117.95C200.72 117.34 201.45 117.28 201.61 118.01L208.47 138.19H193.7L200.5 117.96V117.95Z" fill="#3055A2"/>
<path d="M223.3 149.22V150.11H230.1C243.87 150.11 253.62 144.03 253.62 135.51C253.62 129.66 248.21 125.81 244.42 125.36C247.43 123.13 249.27 120.45 249.27 117.22C249.27 112.87 245.31 111.14 240.3 111.14H223.3V111.98C225.14 111.98 226.37 114.82 226.37 116.55V146.04C226.37 147.82 225.14 149.22 223.3 149.22ZM231.77 116.33C231.77 114.6 233.05 113.32 234.78 113.32H237.51C240.8 113.32 243.31 114.94 243.31 118C243.31 123.91 235.06 127.2 231.77 129.82V116.33ZM231.77 132C234.06 130.44 237.73 128.66 240.86 128.66C245.65 128.66 247.77 132.39 247.77 135.46C247.77 141.87 239.46 147.44 233.95 147.44C232.5 147.44 231.78 147.33 231.78 144.99V132H231.77Z" fill="#3055A2"/>
<path d="M258.2 149.28V150.12H283.28C284 150.12 284.45 149.62 284.45 148.89V139.92H283.56C283.56 143.77 281.05 148.06 272.08 148.06C268.51 148.06 266.62 146.5 266.62 143.04V131.33C271.92 131.33 277.16 132.33 277.16 135.06H278.05V126.14H277.16C277.16 128.87 271.92 129.93 266.62 129.93V118.78C266.62 115.49 268.46 113.15 272.08 113.15C281.11 113.15 283.56 117.55 283.56 121.34H284.45V112.14C284.45 111.36 284 111.08 283.28 111.08H258.2V111.97C260.04 111.97 261.27 114.98 261.27 116.76V144.46C261.27 146.24 260.04 149.25 258.2 149.25V149.28Z" fill="#3055A2"/>
<path d="M290.48 149.28V150.12H316.73V140.81H315.78C315.78 143.99 313.83 148.06 305.36 148.06C301.35 148.06 298.95 146.33 298.95 142.32V116.9C298.95 115.12 300.23 112 301.96 112V111.11H290.48V112C292.32 112 293.55 115.12 293.55 116.9V144.38C293.55 146.16 292.32 149.29 290.48 149.29V149.28Z" fill="#3055A2"/>
<path d="M157.49 196.61L160.99 202.24L164.5 196.61L171.13 196.39L168.01 190.54L171.13 184.69L164.5 184.46L160.99 178.83L157.49 184.46L150.86 184.69L153.98 190.54L150.86 196.39L157.49 196.61Z" fill="#3055A2"/>
</g>
<defs>
<clipPath id="clip0_43_123">
<rect width="322" height="264" fill="white"/>
</clipPath>
</defs>
</svg>
