<svg width="800" height="618" viewBox="0 0 800 618" fill="none" xmlns="http://www.w3.org/2000/svg">
<g clip-path="url(#clip0_25_177)">
<rect width="800" height="580" transform="translate(0 38)" fill="white"/>
<path d="M756.361 595V514.894C756.361 503.837 753.868 495.852 748.882 490.938C743.896 485.951 735.874 483.458 724.817 483.458H678.531V467.307H725.793C742.486 467.307 755.097 471.354 763.624 479.447C772.224 487.469 776.523 499.465 776.523 515.436V595H756.361ZM678.748 595V551.424C678.748 543.98 679.362 538.308 680.591 534.405C681.819 530.503 683.084 527.179 684.385 524.433H700.861C699.994 527.685 699.344 531.334 698.91 535.381C698.477 539.355 698.26 544.27 698.26 550.123V595H678.748Z" fill="#111167"/>
<path d="M587.91 596.843C582.49 596.843 576.745 596.337 570.675 595.325C564.677 594.386 558.39 592.977 551.813 591.098L555.065 576.03C566.989 579.282 577.468 580.836 586.501 580.691C598.353 580.475 607.35 577.439 613.492 571.586C619.635 565.732 622.706 557.386 622.706 546.546V483.458H556.258V467.307H642.76V542.21C642.76 554.567 640.52 564.793 636.039 572.887C631.559 580.98 625.199 587.015 616.961 590.989C608.795 594.892 599.111 596.843 587.91 596.843Z" fill="#111167"/>
<path d="M427.806 595L427.914 467.307H475.935C492.845 467.307 505.455 471.354 513.766 479.447C522.076 487.469 526.268 499.718 526.34 516.194V595H506.286V515.002C506.286 503.945 503.901 495.924 499.132 490.938C494.362 485.951 486.702 483.458 476.151 483.458H447.968L447.859 595H427.806Z" fill="#111167"/>
<path d="M368.403 595V483.458H353.553V467.307H388.565V595H368.403Z" fill="#111167"/>
<path d="M237.675 483.458V428.5H257.729V467.307H327.104V483.458H237.675ZM334.691 479.989L287.863 595H266.292L319.299 467.307H334.691V479.989Z" fill="#111167"/>
<path d="M756.361 412V331.894C756.361 320.837 753.868 312.852 748.882 307.938C743.896 302.951 735.874 300.458 724.817 300.458H678.531V284.307H725.793C742.486 284.307 755.097 288.354 763.624 296.447C772.224 304.469 776.523 316.465 776.523 332.436V412H756.361ZM678.748 412V368.424C678.748 360.98 679.362 355.308 680.591 351.405C681.819 347.503 683.084 344.179 684.385 341.433H700.861C699.994 344.685 699.344 348.334 698.91 352.381C698.477 356.355 698.26 361.27 698.26 367.123V412H678.748Z" fill="#111167"/>
<path d="M595.498 284.307C612.408 284.307 625.019 288.354 633.329 296.447C641.712 304.469 645.903 316.718 645.903 333.194V412H625.85L625.741 332.002C625.741 320.945 623.356 312.924 618.587 307.938C613.89 302.951 606.266 300.458 595.715 300.458H577.612C575.228 304.36 573.312 309.383 571.867 315.525C570.494 321.596 569.808 327.847 569.808 334.278V377.312C569.808 389.092 566.989 398.017 561.353 404.087C555.788 410.085 547.73 413.084 537.18 413.084C535.012 413.084 532.916 412.976 530.893 412.759C528.941 412.614 526.882 412.397 524.714 412.108V395.957C526.015 396.102 527.279 396.21 528.508 396.282C529.809 396.354 531.037 396.391 532.193 396.391C538.553 396.391 543.142 394.765 545.96 391.513C548.778 388.261 550.188 383.13 550.188 376.12V335.796C550.188 329.364 551.019 322.86 552.681 316.284C554.415 309.708 556.836 304.433 559.943 300.458H535.987V284.307H595.498Z" fill="#111167"/>
<path d="M483.956 412V300.458H469.105V284.307H504.118V412H483.956Z" fill="#111167"/>
<g clip-path="url(#clip1_25_177)">
<rect width="800" height="26" transform="matrix(1 0 0 -1 0 26)" fill="white"/>
</g>
</g>
<defs>
<clipPath id="clip0_25_177">
<rect width="800" height="618" fill="white"/>
</clipPath>
<clipPath id="clip1_25_177">
<rect width="800" height="26" fill="white" transform="matrix(1 0 0 -1 0 26)"/>
</clipPath>
</defs>
</svg>
