<svg width="800" height="618" viewBox="0 0 800 618" fill="none" xmlns="http://www.w3.org/2000/svg">
<rect width="800" height="618" fill="#111167"/>
<rect width="800" height="580" transform="translate(0 38)" fill="white"/>
<path d="M591.921 593V431.545H611.473V575.656H686.524V593H591.921Z" fill="#111167"/>
<path d="M457.688 593V431.545H555.128V448.889H477.239V503.443H550.083V520.787H477.239V575.656H556.389V593H457.688Z" fill="#111167"/>
<path d="M311.747 593V431.545H368.193C379.44 431.545 388.717 433.49 396.022 437.379C403.327 441.216 408.767 446.393 412.341 452.91C415.915 459.374 417.702 466.548 417.702 474.432C417.702 481.369 416.467 487.098 413.996 491.618C411.579 496.138 408.373 499.712 404.378 502.339C400.437 504.967 396.153 506.912 391.528 508.173V509.75C396.469 510.065 401.435 511.8 406.428 514.953C411.421 518.106 415.599 522.626 418.963 528.513C422.327 534.399 424.008 541.599 424.008 550.114C424.008 558.207 422.169 565.486 418.49 571.951C414.811 578.415 409.003 583.54 401.067 587.324C393.131 591.108 382.804 593 370.085 593H311.747ZM331.298 575.656H370.085C382.856 575.656 391.922 573.186 397.283 568.246C402.697 563.253 405.403 557.209 405.403 550.114C405.403 544.648 404.011 539.602 401.225 534.977C398.44 530.3 394.471 526.568 389.321 523.783C384.17 520.945 378.074 519.526 371.031 519.526H331.298V575.656ZM331.298 502.497H367.562C373.449 502.497 378.757 501.341 383.487 499.028C388.27 496.716 392.054 493.457 394.839 489.253C397.677 485.048 399.096 480.108 399.096 474.432C399.096 467.337 396.626 461.319 391.686 456.379C386.746 451.386 378.915 448.889 368.193 448.889H331.298V502.497Z" fill="#111167"/>
<path d="M166.792 593H146.295L205.579 431.545H225.761L285.045 593H264.548L216.3 457.088H215.039L166.792 593ZM174.36 529.932H256.979V547.276H174.36V529.932Z" fill="#111167"/>
<path d="M23.551 593V431.545H43.1022V575.656H118.153V593H23.551Z" fill="#111167"/>
<path d="M457.362 410V248.545H554.802V265.889H476.913V320.443H549.757V337.787H476.913V392.656H556.064V410H457.362Z" fill="#111167"/>
<path d="M398.768 248.545H418.319V355.446C418.319 366.483 415.717 376.337 410.514 385.009C405.363 393.629 398.084 400.435 388.677 405.428C379.269 410.368 368.232 412.838 355.566 412.838C342.9 412.838 331.863 410.368 322.455 405.428C313.047 400.435 305.742 393.629 300.539 385.009C295.388 376.337 292.813 366.483 292.813 355.446V248.545H312.364V353.869C312.364 361.753 314.098 368.769 317.567 374.918C321.036 381.015 325.976 385.824 332.388 389.345C338.853 392.814 346.579 394.548 355.566 394.548C364.553 394.548 372.279 392.814 378.743 389.345C385.208 385.824 390.148 381.015 393.564 374.918C397.033 368.769 398.768 361.753 398.768 353.869V248.545Z" fill="#111167"/>
<path d="M167.938 410V248.545H187.489V392.656H262.54V410H167.938Z" fill="#111167"/>
<path d="M23.551 410V248.545H79.997C91.2442 248.545 100.52 250.49 107.826 254.379C115.131 258.216 120.571 263.393 124.145 269.91C127.719 276.374 129.506 283.548 129.506 291.432C129.506 298.369 128.27 304.098 125.8 308.618C123.383 313.138 120.177 316.712 116.182 319.339C112.241 321.967 107.957 323.912 103.332 325.173V326.75C108.273 327.065 113.239 328.8 118.232 331.953C123.225 335.106 127.403 339.626 130.767 345.513C134.131 351.399 135.812 358.599 135.812 367.114C135.812 375.207 133.973 382.486 130.294 388.951C126.615 395.415 120.807 400.54 112.871 404.324C104.935 408.108 94.6078 410 81.8891 410H23.551ZM43.1022 392.656H81.8891C94.6604 392.656 103.726 390.186 109.087 385.246C114.501 380.253 117.207 374.209 117.207 367.114C117.207 361.648 115.815 356.602 113.029 351.977C110.244 347.3 106.275 343.568 101.125 340.783C95.9743 337.945 89.8777 336.526 82.8351 336.526H43.1022V392.656ZM43.1022 319.497H79.3664C85.2527 319.497 90.561 318.341 95.2911 316.028C100.074 313.716 103.858 310.457 106.643 306.253C109.481 302.048 110.9 297.108 110.9 291.432C110.9 284.337 108.43 278.319 103.49 273.379C98.5496 268.386 90.7186 265.889 79.997 265.889H43.1022V319.497Z" fill="#111167"/>
<g clip-path="url(#clip0_10_133)">
<rect width="800" height="26" transform="matrix(1 0 0 -1 0 26)" fill="white"/>
</g>
<defs>
<clipPath id="clip0_10_133">
<rect width="800" height="26" fill="white" transform="matrix(1 0 0 -1 0 26)"/>
</clipPath>
</defs>
</svg>
